<svg width="1200" height="800" xmlns="http://www.w3.org/2000/svg">
  <!-- Background -->
  <rect width="1200" height="800" fill="#0d1117"/>
  
  <!-- Header -->
  <rect x="0" y="0" width="1200" height="60" fill="#161b22"/>
  <text x="24" y="35" font-family="system-ui" font-size="18" fill="#f0f6fc" font-weight="600">GitHub Backup Manager</text>
  
  <!-- Navigation -->
  <rect x="24" y="80" width="200" height="32" rx="6" fill="#21262d"/>
  <text x="32" y="100" font-family="system-ui" font-size="14" fill="#7d8590">Dashboard</text>
  
  <rect x="240" y="80" width="200" height="32" rx="6" fill="transparent" stroke="#30363d"/>
  <text x="248" y="100" font-family="system-ui" font-size="14" fill="#7d8590">Configuration</text>
  
  <rect x="456" y="80" width="200" height="32" rx="6" fill="transparent" stroke="#30363d"/>
  <text x="464" y="100" font-family="system-ui" font-size="14" fill="#7d8590">Repositories</text>
  
  <!-- Main Content Area -->
  <rect x="24" y="140" width="1152" height="620" rx="6" fill="#0d1117" stroke="#30363d"/>
  
  <!-- Stats Cards -->
  <rect x="48" y="170" width="260" height="100" rx="6" fill="#161b22" stroke="#21262d"/>
  <text x="64" y="195" font-family="system-ui" font-size="14" fill="#7d8590">Total Repositories</text>
  <text x="64" y="235" font-family="system-ui" font-size="32" fill="#f0f6fc" font-weight="600">12</text>
  
  <rect x="332" y="170" width="260" height="100" rx="6" fill="#161b22" stroke="#21262d"/>
  <text x="348" y="195" font-family="system-ui" font-size="14" fill="#7d8590">Successful Backups</text>
  <text x="348" y="235" font-family="system-ui" font-size="32" fill="#238636" font-weight="600">8</text>
  
  <rect x="616" y="170" width="260" height="100" rx="6" fill="#161b22" stroke="#21262d"/>
  <text x="632" y="195" font-family="system-ui" font-size="14" fill="#7d8590">Last Backup</text>
  <text x="632" y="235" font-family="system-ui" font-size="18" fill="#f0f6fc">2 hours ago</text>
  
  <rect x="900" y="170" width="260" height="100" rx="6" fill="#161b22" stroke="#21262d"/>
  <text x="916" y="195" font-family="system-ui" font-size="14" fill="#7d8590">Next Scheduled</text>
  <text x="916" y="235" font-family="system-ui" font-size="18" fill="#f0f6fc">2:00 AM</text>
  
  <!-- Recent Backups Section -->
  <text x="48" y="320" font-family="system-ui" font-size="20" fill="#f0f6fc" font-weight="600">Recent Backup Jobs</text>
  
  <!-- Table Header -->
  <rect x="48" y="340" width="1112" height="40" fill="#161b22"/>
  <text x="64" y="365" font-family="system-ui" font-size="14" fill="#7d8590">Repository</text>
  <text x="300" y="365" font-family="system-ui" font-size="14" fill="#7d8590">Status</text>
  <text x="450" y="365" font-family="system-ui" font-size="14" fill="#7d8590">Size</text>
  <text x="600" y="365" font-family="system-ui" font-size="14" fill="#7d8590">Completed</text>
  <text x="850" y="365" font-family="system-ui" font-size="14" fill="#7d8590">Actions</text>
  
  <!-- Table Rows -->
  <rect x="48" y="380" width="1112" height="45" fill="transparent" stroke="#21262d"/>
  <text x="64" y="407" font-family="system-ui" font-size="14" fill="#f0f6fc">davidsnyder-nc/my-project</text>
  <rect x="300" y="390" width="80" height="24" rx="12" fill="#238636"/>
  <text x="315" y="405" font-family="system-ui" font-size="12" fill="#fff">Completed</text>
  <text x="450" y="407" font-family="system-ui" font-size="14" fill="#7d8590">2.4 MB</text>
  <text x="600" y="407" font-family="system-ui" font-size="14" fill="#7d8590">2 hours ago</text>
  <rect x="850" y="387" width="70" height="30" rx="6" fill="transparent" stroke="#30363d"/>
  <text x="870" y="405" font-family="system-ui" font-size="12" fill="#7d8590">Download</text>
  
  <rect x="48" y="425" width="1112" height="45" fill="transparent" stroke="#21262d"/>
  <text x="64" y="452" font-family="system-ui" font-size="14" fill="#f0f6fc">davidsnyder-nc/web-app</text>
  <rect x="300" y="435" width="80" height="24" rx="12" fill="#238636"/>
  <text x="315" y="450" font-family="system-ui" font-size="12" fill="#fff">Completed</text>
  <text x="450" y="452" font-family="system-ui" font-size="14" fill="#7d8590">5.1 MB</text>
  <text x="600" y="452" font-family="system-ui" font-size="14" fill="#7d8590">4 hours ago</text>
  <rect x="850" y="432" width="70" height="30" rx="6" fill="transparent" stroke="#30363d"/>
  <text x="870" y="450" font-family="system-ui" font-size="12" fill="#7d8590">Download</text>
  
  <rect x="48" y="470" width="1112" height="45" fill="transparent" stroke="#21262d"/>
  <text x="64" y="497" font-family="system-ui" font-size="14" fill="#f0f6fc">davidsnyder-nc/api-service</text>
  <rect x="300" y="480" width="60" height="24" rx="12" fill="#da3633"/>
  <text x="315" y="495" font-family="system-ui" font-size="12" fill="#fff">Failed</text>
  <text x="450" y="497" font-family="system-ui" font-size="14" fill="#7d8590">-</text>
  <text x="600" y="497" font-family="system-ui" font-size="14" fill="#7d8590">6 hours ago</text>
  <rect x="850" y="477" width="50" height="30" rx="6" fill="transparent" stroke="#30363d"/>
  <text x="865" y="495" font-family="system-ui" font-size="12" fill="#7d8590">Retry</text>
  
  <!-- Action Button -->
  <rect x="950" y="520" width="140" height="36" rx="6" fill="#238636"/>
  <text x="990" y="542" font-family="system-ui" font-size="14" fill="#fff" font-weight="500">Backup Now</text>
</svg>